<?xml version="1.0" encoding="utf-8"?>
<!-- Svg Vector Icons : http://www.onlinewebfonts.com/icon -->
<!DOCTYPE svg PUBLIC "-//W3C//DTD SVG 1.1//EN" "http://www.w3.org/Graphics/SVG/1.1/DTD/svg11.dtd">
<svg version="1.1" xmlns="http://www.w3.org/2000/svg" xmlns:xlink="http://www.w3.org/1999/xlink" x="0px" y="0px" viewBox="0 0 1000 1000" enable-background="new 0 0 1000 1000" xml:space="preserve">
<metadata> Svg Vector Icons : http://www.onlinewebfonts.com/icon </metadata>
<g><g transform="translate(0.000000,511.000000) scale(0.100000,-0.100000)"><path d="M4459.5,4998.2c-650.5-73.8-1352.9-308.8-1937.9-650.5c-276.1-164-683.3-478.3-964.8-746.2C868,2940,365.1,2002.5,162.9,1004.9C108.2,739.8,100,614.1,100,108.4c0-661.4,43.7-953.9,218.7-1497.8c123-374.5,429.1-986.7,661.4-1317.4C1207-3026.6,1944.9-3770,2177.3-3912.1c90.2-54.7,265.1-161.3,390.8-235.1c789.9-478.3,1853.1-724.3,2787.9-642.3c1000.4,87.5,1875,429.1,2643,1030.4C9029.5-2952.8,9688.2-1813,9871.3-514.7c38.3,259.7,38.3,989.4,0,1251.8c-114.8,814.5-437.3,1609.9-907.4,2246.7c-336.2,456.4-688.8,803.6-1183.5,1164.3c-240.5,177.7-932,522.1-1257.3,628.6C5867.1,4992.7,5120.9,5072,4459.5,4998.2z M5867.1,4508.9c303.4-60.1,800.8-213.2,964.8-297.9l92.9-46.5l-188.6-79.3c-297.9-125.7-762.5-363.5-1052.3-538.5l-270.6-164l-123,73.8c-169.5,98.4-461.9,379.9-584.9,560.3c-106.6,158.5-273.3,472.9-273.3,516.6C4432.2,4610.1,5440.7,4593.7,5867.1,4508.9z M4057.7,4295.7c158.5-385.4,483.8-809,828.2-1074.2l144.9-112.1l-218.7-177.7l-218.7-174.9l-224.1,95.7c-705.2,300.7-1484.2,502.9-2129.2,552.1c-133.9,10.9-240.5,27.3-240.5,41c0,35.5,218.7,210.4,475.6,385.4c248.7,166.7,557.6,330.7,817.2,437.3c147.6,60.1,612.3,207.7,661.4,210.4C3970.3,4481.6,4016.7,4396.9,4057.7,4295.7z M7673.8,3719c494.7-369,975.8-904.7,1194.4-1333.8l46.5-87.5l-229.6,109.3c-410,191.3-595.8,243.3-1926.9,530.2c-385.4,82-798.1,196.8-830.9,232.3c-27.3,24.6,289.7,205,672.4,382.6c248.8,117.5,776.3,325.3,828.2,328C7444.2,3880.3,7556.2,3806.5,7673.8,3719z M2303,2964.6c612.2-71.1,1180.7-210.5,1727.4-423.7l232.3-90.2l-273.3-300.7c-150.3-166.7-341.7-390.9-423.6-500.2l-147.6-199.5l-114.8,82c-360.8,251.5-910.2,278.8-1527.9,76.5c-232.3-73.8-732.5-308.9-943-442.8c-57.4-35.5-131.2-79.3-166.7-98.4c-57.4-30.1-60.1-30.1-43.7,43.7c128.5,587.6,415.4,1213.5,784.4,1711l139.4,183.1h205C1865.7,3005.6,2114.4,2986.5,2303,2964.6z M5804.3,2748.7c289.7-103.9,680.6-202.3,1415.8-358.1c1068.7-221.4,1489.6-404.5,1864.1-800.8c202.2-215.9,248.7-300.7,306.1-579.4c232.3-1137-10.9-2418.9-634.1-3370.1c-79.3-120.3-90.2-109.3-142.1,117.5c-19.1,82-82,303.4-142.1,492C7914.3-14.6,6774.6,1458.6,5271.3,2382.5c-147.6,92.9-259.6,174.9-246,185.9c10.9,10.9,106.6,84.7,210.5,164C5448.9,2890.8,5413.4,2890.8,5804.3,2748.7z M4937.8,2100.9c1213.6-694.2,2233.1-1847.7,2831.6-3197.9c224.1-508.4,464.6-1292.8,527.5-1721.9l19.1-128.4l-232.3-213.2c-604-552.1-1372.1-953.9-2107.3-1106.9c-161.3-32.8-169.5-30.1-347.1,54.7c-300.7,142.1-508.4,420.9-683.3,918.4c-106.6,295.2-224.1,825.4-390.8,1735.6c-265.1,1459.5-442.8,2069.1-738,2531c-117.5,185.9-120.3,177.7,125.7,489.2c172.2,218.7,699.7,779,732.5,779C4686.4,2240.3,4803.9,2177.5,4937.8,2100.9z M2715.7,1308.3c150.3-32.8,330.7-112.1,410-180.4c41-38.3,38.3-51.9-43.7-180.4c-136.7-213.2-382.7-686-494.7-948.4c-396.3-918.4-590.4-1771.1-639.6-2801.6l-19.1-382.7l-202.3,213.2c-549.4,576.7-945.7,1342-1123.4,2167.5c-43.7,196.8-62.9,407.3-71.1,765.3l-13.7,494.7l336.2,215.9C1690.7,1201.7,2275.7,1401.2,2715.7,1308.3z M3571.2,534.8c205-437.3,322.5-899.2,546.6-2121c289.7-1590.7,478.3-2189.3,825.4-2615.7c65.6-79.2,117.5-150.3,117.5-158.5c0-43.7-639.6,8.2-1011.3,84.7C3579.4-4180,2959-3925.8,2549-3663.4l-174.9,112.1l16.4,634.1c8.2,371.7,32.8,746.2,60.1,907.4c144.9,915.6,420.9,1732.9,828.2,2468.1c84.7,153.1,164,278.8,177.7,278.8S3522,646.9,3571.2,534.8z"/></g></g>
</svg>